<svg width="18" height="18" viewBox="0 0 18 18" fill="none" xmlns="http://www.w3.org/2000/svg">
<g clip-path="url(#clip0)">
<path fill-rule="evenodd" clip-rule="evenodd" d="M17.7699 9.20443C17.7699 8.56625 17.7126 7.95262 17.6062 7.36353H9.12988V10.8449H13.9735C13.7649 11.9699 13.1308 12.9231 12.1776 13.5613V15.8194H15.0862C16.7881 14.2526 17.7699 11.9453 17.7699 9.20443Z" fill="#4285F4"/>
<path fill-rule="evenodd" clip-rule="evenodd" d="M9.12964 18C11.5596 18 13.5969 17.1941 15.086 15.8195L12.1774 13.5613C11.3715 14.1013 10.3406 14.4204 9.12964 14.4204C6.78555 14.4204 4.80146 12.8372 4.09373 10.71H1.08691V13.0418C2.56782 15.9831 5.61146 18 9.12964 18Z" fill="#34A853"/>
<path fill-rule="evenodd" clip-rule="evenodd" d="M4.09397 10.7101C3.91397 10.1701 3.8117 9.59325 3.8117 9.00007C3.8117 8.40689 3.91397 7.83007 4.09397 7.29007V4.95825H1.08716C0.47761 6.17325 0.129883 7.5478 0.129883 9.00007C0.129883 10.4523 0.47761 11.8269 1.08716 13.0419L4.09397 10.7101Z" fill="#FBBC05"/>
<path fill-rule="evenodd" clip-rule="evenodd" d="M9.12964 3.57955C10.451 3.57955 11.6374 4.03364 12.5701 4.92545L15.1515 2.34409C13.5928 0.891818 11.5556 0 9.12964 0C5.61146 0 2.56782 2.01682 1.08691 4.95818L4.09373 7.29C4.80146 5.16273 6.78555 3.57955 9.12964 3.57955Z" fill="#EA4335"/>
</g>
<defs>
<clipPath id="clip0">
<rect width="18" height="18" fill="white"/>
</clipPath>
</defs>
</svg>
